<mxfile host="app.diagrams.net" modified="2024-03-11T21:03:50.719Z" agent="Mozilla/5.0 (Windows NT 10.0; Win64; x64; rv:123.0) Gecko/20100101 Firefox/123.0" etag="N-WYw8Jn8tAt34bUz2MH" version="24.0.4" type="google">
  <diagram name="StrÃ¡nka-1" id="BS3cUCEcsDlfEVmhAhRl">
    <mxGraphModel dx="1781" dy="1763" grid="1" gridSize="10" guides="1" tooltips="1" connect="1" arrows="1" fold="1" page="1" pageScale="1" pageWidth="827" pageHeight="1169" math="0" shadow="0">
      <root>
        <mxCell id="0" />
        <mxCell id="1" parent="0" />
        <mxCell id="UTIHgOnjqlhW3wqb73gF-12" style="edgeStyle=orthogonalEdgeStyle;rounded=0;orthogonalLoop=1;jettySize=auto;html=1;" edge="1" parent="1" source="UTIHgOnjqlhW3wqb73gF-1">
          <mxGeometry relative="1" as="geometry">
            <mxPoint x="160" y="270" as="targetPoint" />
          </mxGeometry>
        </mxCell>
        <mxCell id="UTIHgOnjqlhW3wqb73gF-1" value="&lt;div&gt;LLAMA&lt;/div&gt;&lt;div&gt;model.py&lt;br&gt;&lt;/div&gt;" style="whiteSpace=wrap;html=1;aspect=fixed;" vertex="1" parent="1">
          <mxGeometry x="120" y="80" width="80" height="80" as="geometry" />
        </mxCell>
        <mxCell id="UTIHgOnjqlhW3wqb73gF-5" style="edgeStyle=orthogonalEdgeStyle;rounded=0;orthogonalLoop=1;jettySize=auto;html=1;entryX=1;entryY=0;entryDx=0;entryDy=0;" edge="1" parent="1" source="UTIHgOnjqlhW3wqb73gF-2" target="UTIHgOnjqlhW3wqb73gF-1">
          <mxGeometry relative="1" as="geometry" />
        </mxCell>
        <mxCell id="UTIHgOnjqlhW3wqb73gF-2" value="config_model.py" style="whiteSpace=wrap;html=1;aspect=fixed;" vertex="1" parent="1">
          <mxGeometry x="240" y="-30" width="100" height="100" as="geometry" />
        </mxCell>
        <mxCell id="UTIHgOnjqlhW3wqb73gF-8" style="edgeStyle=orthogonalEdgeStyle;rounded=0;orthogonalLoop=1;jettySize=auto;html=1;entryX=0;entryY=0;entryDx=0;entryDy=0;" edge="1" parent="1" source="UTIHgOnjqlhW3wqb73gF-7" target="UTIHgOnjqlhW3wqb73gF-1">
          <mxGeometry relative="1" as="geometry" />
        </mxCell>
        <mxCell id="UTIHgOnjqlhW3wqb73gF-7" value="tokenizer.py" style="whiteSpace=wrap;html=1;aspect=fixed;" vertex="1" parent="1">
          <mxGeometry y="-80" width="80" height="80" as="geometry" />
        </mxCell>
        <mxCell id="UTIHgOnjqlhW3wqb73gF-11" style="edgeStyle=orthogonalEdgeStyle;rounded=0;orthogonalLoop=1;jettySize=auto;html=1;entryX=0.5;entryY=0;entryDx=0;entryDy=0;" edge="1" parent="1" source="UTIHgOnjqlhW3wqb73gF-10" target="UTIHgOnjqlhW3wqb73gF-7">
          <mxGeometry relative="1" as="geometry" />
        </mxCell>
        <mxCell id="UTIHgOnjqlhW3wqb73gF-10" value="config_tokenizer.py" style="whiteSpace=wrap;html=1;aspect=fixed;" vertex="1" parent="1">
          <mxGeometry x="120" y="-240" width="120" height="120" as="geometry" />
        </mxCell>
        <mxCell id="UTIHgOnjqlhW3wqb73gF-14" style="edgeStyle=orthogonalEdgeStyle;rounded=0;orthogonalLoop=1;jettySize=auto;html=1;" edge="1" parent="1" source="UTIHgOnjqlhW3wqb73gF-13" target="UTIHgOnjqlhW3wqb73gF-15">
          <mxGeometry relative="1" as="geometry">
            <mxPoint x="160" y="450" as="targetPoint" />
            <Array as="points">
              <mxPoint x="160" y="480" />
            </Array>
          </mxGeometry>
        </mxCell>
        <mxCell id="UTIHgOnjqlhW3wqb73gF-17" style="edgeStyle=orthogonalEdgeStyle;rounded=0;orthogonalLoop=1;jettySize=auto;html=1;entryX=1;entryY=0.5;entryDx=0;entryDy=0;" edge="1" parent="1" source="UTIHgOnjqlhW3wqb73gF-13" target="UTIHgOnjqlhW3wqb73gF-16">
          <mxGeometry relative="1" as="geometry">
            <Array as="points">
              <mxPoint x="160" y="480" />
            </Array>
          </mxGeometry>
        </mxCell>
        <mxCell id="UTIHgOnjqlhW3wqb73gF-13" value="&lt;div&gt;INICIALIZE&lt;br&gt;&lt;/div&gt;&lt;div&gt;llama.py&lt;/div&gt;" style="whiteSpace=wrap;html=1;aspect=fixed;" vertex="1" parent="1">
          <mxGeometry x="120" y="280" width="80" height="80" as="geometry" />
        </mxCell>
        <mxCell id="UTIHgOnjqlhW3wqb73gF-31" style="edgeStyle=orthogonalEdgeStyle;rounded=0;orthogonalLoop=1;jettySize=auto;html=1;" edge="1" parent="1" source="UTIHgOnjqlhW3wqb73gF-15" target="UTIHgOnjqlhW3wqb73gF-30">
          <mxGeometry relative="1" as="geometry" />
        </mxCell>
        <mxCell id="UTIHgOnjqlhW3wqb73gF-15" value="generation.py" style="whiteSpace=wrap;html=1;aspect=fixed;" vertex="1" parent="1">
          <mxGeometry x="240" y="440" width="80" height="80" as="geometry" />
        </mxCell>
        <mxCell id="UTIHgOnjqlhW3wqb73gF-28" style="edgeStyle=orthogonalEdgeStyle;rounded=0;orthogonalLoop=1;jettySize=auto;html=1;entryX=0.5;entryY=1;entryDx=0;entryDy=0;" edge="1" parent="1" source="UTIHgOnjqlhW3wqb73gF-16" target="UTIHgOnjqlhW3wqb73gF-27">
          <mxGeometry relative="1" as="geometry" />
        </mxCell>
        <mxCell id="UTIHgOnjqlhW3wqb73gF-16" value="train.py" style="whiteSpace=wrap;html=1;aspect=fixed;" vertex="1" parent="1">
          <mxGeometry y="440" width="80" height="80" as="geometry" />
        </mxCell>
        <mxCell id="UTIHgOnjqlhW3wqb73gF-19" style="edgeStyle=orthogonalEdgeStyle;rounded=0;orthogonalLoop=1;jettySize=auto;html=1;entryX=1;entryY=0.5;entryDx=0;entryDy=0;" edge="1" parent="1" source="UTIHgOnjqlhW3wqb73gF-18" target="UTIHgOnjqlhW3wqb73gF-15">
          <mxGeometry relative="1" as="geometry">
            <Array as="points">
              <mxPoint x="440" y="480" />
            </Array>
          </mxGeometry>
        </mxCell>
        <mxCell id="UTIHgOnjqlhW3wqb73gF-18" value="config_&lt;br&gt;generation.py" style="whiteSpace=wrap;html=1;aspect=fixed;" vertex="1" parent="1">
          <mxGeometry x="400" y="320" width="90" height="90" as="geometry" />
        </mxCell>
        <mxCell id="UTIHgOnjqlhW3wqb73gF-21" style="edgeStyle=orthogonalEdgeStyle;rounded=0;orthogonalLoop=1;jettySize=auto;html=1;entryX=0;entryY=0.5;entryDx=0;entryDy=0;" edge="1" parent="1" source="UTIHgOnjqlhW3wqb73gF-20" target="UTIHgOnjqlhW3wqb73gF-16">
          <mxGeometry relative="1" as="geometry">
            <Array as="points">
              <mxPoint x="-120" y="480" />
            </Array>
          </mxGeometry>
        </mxCell>
        <mxCell id="UTIHgOnjqlhW3wqb73gF-20" value="config_train" style="whiteSpace=wrap;html=1;aspect=fixed;" vertex="1" parent="1">
          <mxGeometry x="-160" y="320" width="80" height="80" as="geometry" />
        </mxCell>
        <mxCell id="UTIHgOnjqlhW3wqb73gF-24" style="edgeStyle=orthogonalEdgeStyle;rounded=0;orthogonalLoop=1;jettySize=auto;html=1;" edge="1" parent="1" source="UTIHgOnjqlhW3wqb73gF-23" target="UTIHgOnjqlhW3wqb73gF-16">
          <mxGeometry relative="1" as="geometry" />
        </mxCell>
        <mxCell id="UTIHgOnjqlhW3wqb73gF-23" value="dataset.py" style="whiteSpace=wrap;html=1;aspect=fixed;" vertex="1" parent="1">
          <mxGeometry y="620" width="80" height="80" as="geometry" />
        </mxCell>
        <mxCell id="UTIHgOnjqlhW3wqb73gF-26" style="edgeStyle=orthogonalEdgeStyle;rounded=0;orthogonalLoop=1;jettySize=auto;html=1;entryX=0.5;entryY=1;entryDx=0;entryDy=0;" edge="1" parent="1" source="UTIHgOnjqlhW3wqb73gF-25" target="UTIHgOnjqlhW3wqb73gF-23">
          <mxGeometry relative="1" as="geometry" />
        </mxCell>
        <mxCell id="UTIHgOnjqlhW3wqb73gF-25" value="data.csv" style="whiteSpace=wrap;html=1;aspect=fixed;" vertex="1" parent="1">
          <mxGeometry y="800" width="100" height="100" as="geometry" />
        </mxCell>
        <mxCell id="UTIHgOnjqlhW3wqb73gF-29" style="edgeStyle=orthogonalEdgeStyle;rounded=0;orthogonalLoop=1;jettySize=auto;html=1;entryX=0;entryY=0.5;entryDx=0;entryDy=0;" edge="1" parent="1" source="UTIHgOnjqlhW3wqb73gF-27" target="UTIHgOnjqlhW3wqb73gF-13">
          <mxGeometry relative="1" as="geometry" />
        </mxCell>
        <mxCell id="UTIHgOnjqlhW3wqb73gF-27" value="params.pth" style="whiteSpace=wrap;html=1;aspect=fixed;" vertex="1" parent="1">
          <mxGeometry x="-40" y="280" width="80" height="80" as="geometry" />
        </mxCell>
        <mxCell id="UTIHgOnjqlhW3wqb73gF-30" value="GUI.py" style="whiteSpace=wrap;html=1;aspect=fixed;" vertex="1" parent="1">
          <mxGeometry x="240" y="600" width="80" height="80" as="geometry" />
        </mxCell>
        <mxCell id="UTIHgOnjqlhW3wqb73gF-32" value="&lt;div&gt;opimizer_params.pth&lt;/div&gt;" style="whiteSpace=wrap;html=1;aspect=fixed;" vertex="1" parent="1">
          <mxGeometry x="-230" y="560" width="130" height="130" as="geometry" />
        </mxCell>
        <mxCell id="UTIHgOnjqlhW3wqb73gF-36" value="" style="endArrow=classic;startArrow=classic;html=1;rounded=0;exitX=1;exitY=0;exitDx=0;exitDy=0;" edge="1" parent="1" source="UTIHgOnjqlhW3wqb73gF-32">
          <mxGeometry width="50" height="50" relative="1" as="geometry">
            <mxPoint x="170" y="450" as="sourcePoint" />
            <mxPoint y="520" as="targetPoint" />
          </mxGeometry>
        </mxCell>
        <mxCell id="UTIHgOnjqlhW3wqb73gF-39" style="edgeStyle=orthogonalEdgeStyle;rounded=0;orthogonalLoop=1;jettySize=auto;html=1;entryX=0;entryY=0.5;entryDx=0;entryDy=0;" edge="1" parent="1" source="UTIHgOnjqlhW3wqb73gF-37" target="UTIHgOnjqlhW3wqb73gF-7">
          <mxGeometry relative="1" as="geometry" />
        </mxCell>
        <mxCell id="UTIHgOnjqlhW3wqb73gF-37" value="tokenizer.model" style="whiteSpace=wrap;html=1;aspect=fixed;" vertex="1" parent="1">
          <mxGeometry x="-310" y="-80" width="110" height="110" as="geometry" />
        </mxCell>
        <mxCell id="UTIHgOnjqlhW3wqb73gF-38" value="tokenizer.json" style="whiteSpace=wrap;html=1;aspect=fixed;" vertex="1" parent="1">
          <mxGeometry x="-170" y="50" width="80" height="80" as="geometry" />
        </mxCell>
        <mxCell id="UTIHgOnjqlhW3wqb73gF-41" value="" style="endArrow=classic;html=1;rounded=0;entryX=0;entryY=1;entryDx=0;entryDy=0;exitX=1;exitY=0;exitDx=0;exitDy=0;" edge="1" parent="1" source="UTIHgOnjqlhW3wqb73gF-38" target="UTIHgOnjqlhW3wqb73gF-7">
          <mxGeometry width="50" height="50" relative="1" as="geometry">
            <mxPoint x="-140" y="200" as="sourcePoint" />
            <mxPoint x="-90" y="150" as="targetPoint" />
          </mxGeometry>
        </mxCell>
      </root>
    </mxGraphModel>
  </diagram>
</mxfile>
